<?xml version="1.0" encoding="utf-8"?>
<!-- Generator: Adobe Illustrator 19.1.1, SVG Export Plug-In . SVG Version: 6.00 Build 0)  -->
<svg version="1.1" id="Layer_1" xmlns="http://www.w3.org/2000/svg" xmlns:xlink="http://www.w3.org/1999/xlink" x="0px" y="0px"
	 viewBox="0 0 490 247" style="enable-background:new 0 0 490 247;" xml:space="preserve">
<style type="text/css">
	.st0{fill:none;stroke:#D6D6D6;stroke-miterlimit:10;}
	.st1{fill:#7F7F7F;}
	.st2{font-family:'ArialMT';}
	.st3{font-size:14px;}
	.st4{opacity:0.2;fill:#3FA28F;enable-background:new    ;}
	.st5{opacity:0.4;fill:#3FA28F;enable-background:new    ;}
	.st6{opacity:0.8;fill:#3FA28F;enable-background:new    ;}
	.st7{fill:#333333;}
	.st8{fill:#1B5680;}
	.st9{opacity:0.6;fill:#ABABAB;enable-background:new    ;}
	.st10{fill:#ABABAB;}
</style>
<line class="st0" x1="122.5" y1="188" x2="122.5" y2="47"/>
<line class="st0" x1="244.5" y1="188" x2="244.5" y2="47"/>
<line class="st0" x1="367.5" y1="188" x2="367.5" y2="47"/>
<text transform="matrix(1 0 0 1 158.5022 197.1737)" class="st1 st2 st3">October</text>
<g>
	<g>
		<text transform="matrix(1 0 0 1 274.1125 197.1737)" class="st1 st2 st3">November</text>
	</g>
</g>
<g>
	<g>
		<text transform="matrix(1 0 0 1 396.1125 197.1737)" class="st1 st2 st3">December</text>
	</g>
</g>
<text transform="matrix(1 0 0 1 30 155.5)" class="st1 st2 st3">Refunds</text>
<text transform="matrix(1 0 0 1 30 93.5)" class="st1 st2 st3">Revenue</text>
<rect x="168.5" y="158.6" class="st4" width="30" height="11.9"/>
<rect x="290.5" y="144.6" class="st5" width="30" height="25.9"/>
<rect x="413.4" y="124.6" class="st6" width="30" height="45.9"/>
<rect x="168.5" y="61.6" class="st4" width="30" height="46.9"/>
<rect x="290.5" y="81.6" class="st5" width="30" height="26.9"/>
<rect x="413.4" y="91.6" class="st6" width="30" height="16.9"/>
<text transform="matrix(1 0 0 1 148.1248 27.4317)" class="st7 st2 st3">Revenue vs Refunds Summary</text>
<circle class="st8" cx="224.9" cy="227.7" r="4"/>
<circle class="st9" cx="244.9" cy="227.7" r="4"/>
<circle class="st9" cx="264.9" cy="227.7" r="4"/>
<line class="st0" x1="0" y1="108.5" x2="490" y2="108.5"/>
<line class="st0" x1="0" y1="170.5" x2="490" y2="170.5"/>
<g>
	<g>
		<text transform="matrix(1 0 0 1 366.9587 235.1945)" class="st10 st2 st3">view all reports</text>
	</g>
</g>
<polygon class="st10" points="467.1,236.2 467.1,225.8 477.3,231 "/>
</svg>
